<svg width="25" height="21" viewBox="0 0 25 21" fill="none" xmlns="http://www.w3.org/2000/svg">
<path d="M17.9688 0C15.7102 0 13.7327 0.97125 12.5 2.61297C11.2673 0.97125 9.28984 0 7.03125 0C5.23337 0.00202643 3.50971 0.717128 2.23842 1.98842C0.967128 3.25971 0.252026 4.98337 0.25 6.78125C0.25 14.4375 11.602 20.6347 12.0855 20.8906C12.2129 20.9592 12.3553 20.995 12.5 20.995C12.6447 20.995 12.7871 20.9592 12.9145 20.8906C13.398 20.6347 24.75 14.4375 24.75 6.78125C24.748 4.98337 24.0329 3.25971 22.7616 1.98842C21.4903 0.717128 19.7666 0.00202643 17.9688 0ZM12.5 19.1187C10.5028 17.955 2 12.6536 2 6.78125C2.00174 5.44741 2.53237 4.1687 3.47554 3.22554C4.4187 2.28237 5.69741 1.75174 7.03125 1.75C9.15859 1.75 10.9447 2.88313 11.6906 4.70312C11.7565 4.86361 11.8687 5.00087 12.0128 5.09748C12.1569 5.19408 12.3265 5.24565 12.5 5.24565C12.6735 5.24565 12.8431 5.19408 12.9872 5.09748C13.1313 5.00087 13.2435 4.86361 13.3094 4.70312C14.0553 2.87984 15.8414 1.75 17.9688 1.75C19.3026 1.75174 20.5813 2.28237 21.5245 3.22554C22.4676 4.1687 22.9983 5.44741 23 6.78125C23 12.6448 14.495 17.9539 12.5 19.1187Z" fill="#CCCCCC"/>
</svg>
