<svg height="32" viewBox="0 0 32 32" width="32" xmlns="http://www.w3.org/2000/svg"><path d="m28 6h-.5859l2.5859-2.5859-1.4141-1.4141-26.5859 26.5859 1.4141 1.4141 4-4h20.5859a2.0027 2.0027 0 0 0 2-2v-5a1 1 0 0 0 -1-1 2 2 0 0 1 0-4 1 1 0 0 0 1-1v-5a2.0023 2.0023 0 0 0 -2-2zm0 6.1265a4 4 0 0 0 0 7.7465v4.127h-7v-3h-2v3h-9.5859l9.5859-9.5859v4.5859h2v-6.5859l4.4141-4.4141h2.5859z"/><path d="m4 12.1265v-4.1265h15v-2h-15a2.0023 2.0023 0 0 0 -2 2v5a1 1 0 0 0 1 1 2 2 0 0 1 0 4 1 1 0 0 0 -1 1v5h2v-4.127a4 4 0 0 0 0-7.7465z"/><path d="m0 0h32v32h-32z" fill="none"/></svg>